<?xml version="1.0" encoding="UTF-8"?>
<svg id="Layer_1" data-name="Layer 1" xmlns="http://www.w3.org/2000/svg" viewBox="0 0 1920 1920">
  <g>
    <path d="M1213.93,742.67l-61.39,76.94c-19.02,22.49-38.05,39.5-57.07,51.02-18.09,10.98-38.61,17.1-61.39,18.68v-183.78c-1.84,4.27-3.71,8.85-5.64,14.13l-112.8,300.3v104.02c0,20.75-1.6,36.32-4.76,46.69-3.19,10.38-9.52,17.28-19.03,20.75-9.51,3.45-23.77,5.77-42.79,6.91v17.3c14.4-1.15,32.85-1.87,55.33-2.17,22.47-.28,46.7-.42,72.64-.42,23.04,0,45.81.13,68.3.42,22.49.3,40.92,1.02,55.33,2.17v-17.3c-18.45-1.13-32.43-3.45-41.94-6.91-9.51-3.47-16-10.38-19.45-20.75-3.45-10.38-5.19-25.94-5.19-46.69v-216.65c9.35.72,17.57,2.09,24.21,4.38,7.49,2.6,14.85,7.66,22.06,15.13,7.21,7.51,15.41,18.73,24.64,33.72l126.23,198.87c8.64,13.83,10.66,23.49,6.06,28.96-4.62,5.49-18.45,8.81-41.51,9.94v17.3c24.77-1.15,45.39-1.87,61.82-2.17,16.43-.28,30.11-.42,41.07-.42,19.02,0,40.06.13,63.11.42,23.06.3,43.53,1.02,61.39,2.17v-17.3c-15.57-5.76-28.24-12.66-38.04-20.74-9.81-8.07-19.32-18.73-28.54-32l-201.34-303.28,119.21-146.32c20.75-24.77,40.92-42.66,60.52-53.62,19.59-10.93,38.9-18.15,57.92-21.6v-17.3c-9.81.58-21.34,1.17-34.58,1.74-13.26.58-28.24.87-44.96.87-14.42,0-28.11-.13-41.07-.43-12.96-.28-25.81-.57-38.47-.87-12.7-.28-25.37-.72-38.05-1.3v17.3c23.06.58,39.49,5.77,49.28,15.56,9.81,9.81,12.4,23.64,7.79,41.49-4.62,17.88-17.58,39.5-38.9,64.86Z"/>
    <path d="M843.95,1088.01l-154.52-397.22c-7.51-20.17-10.68-35.3-9.51-45.39,1.14-10.08,6.76-16.98,16.85-20.75,10.08-3.74,24.64-5.89,43.67-6.47v-17.3c-13.28.58-31,1.17-53.18,1.73-22.19.58-45.98.87-71.33.87-20.75,0-41.92-.28-63.54-.87-21.62-.57-39.92-1.15-54.9-1.73v17.3c8.64.58,18,4.62,28.09,12.1,10.08,7.51,19.45,21.92,28.11,43.24l217.02,542.11c3.45,0,7.04-.13,10.79-.42,3.76-.3,7.64-.43,11.68-.43s7.92.13,11.67.43c3.74.28,7.34.42,10.81.42l189.34-504.08c10.94-29.96,23.36-52.02,37.19-66.15,13.83-14.11,26.51-23.19,38.03-27.23v-17.3c-8.64.58-18.3,1.17-28.96,1.73-10.68.58-22.91.87-36.75.87-16.72,0-33.58-.28-50.58-.87-17-.57-35.02-1.15-54.03-1.73v17.3c23.62.58,41.79,5.77,54.47,15.57,12.68,9.81,19.04,25.94,19.04,48.41s-7.22,53.03-21.62,91.65l-117.84,314.21Z"/>
  </g>
  <g>
    <path d="M492.61,1542.55c3.77-5.97,4.83-13.17,3.94-21.66-.9-9-3.91-19.11-8.31-29.74-4.4-10.51-9.61-22.53-15.7-34.02-3.08-5.95-6.14-11.98-9.13-17.93-3.12-6.07-6.48-11.73-9.43-17.84-6.13-12.06-12.45-23.51-17.87-34.71-5.66-10.72-10.49-21.07-14.71-29.66-4.36-8.48-7.51-15.89-9.88-20.94-2.37-4.97-3.73-7.78-3.73-7.78,0,0-2.08,6.52-3.85,18.33-.8,5.95-1.69,13.24-1.83,21.59-.1,8.27.26,17.73,1.53,28.36,2.53,20.94,9.14,45.67,22.75,71.75,12.16,22.5,29.82,46.13,54.72,66.77-38.24-25.27-73.99-55.21-106.64-89.33,9.39-9.12,9.86-27.23,6.12-48.45-2-10.88-4.48-23.31-7.92-35.45-3.16-12.47-6.74-25.34-10.35-37.93-3.24-12.83-7.15-24.77-9.98-36.55-1.55-5.74-3.05-11.33-4.46-16.46-1.39-5.22-2.47-10.31-3.64-14.83-2.24-9.08-4.3-16.42-5.36-21.84-1.22-5.26-1.91-8.31-1.91-8.31,0,0-3.18,5.58-6.99,16.18-3.97,10.63-7.68,25.83-9.55,46.12-.67,9.94-.59,20.98.37,33.21,1.02,12.1,3.63,24.89,7.19,38.79,7.11,24.26,19.17,51.15,38.65,77.25-32.62-35.31-61.98-74.82-87.35-118.08,11.14-5.42,15.27-22.29,15.89-43.35.43-10.55.43-22.49-.36-34.59-.59-12.3-1.18-25.22-2.32-37.53-.44-12.71-1.67-24.85-2.26-36.3-.36-11.61-1.45-21.88-1.61-30.97-.26-9.05-.61-16.42-.92-21.59-.2-2.49-.2-4.52-.23-5.95-.04-1.38-.08-2.16-.08-2.16,0,0-.94,1.1-2.67,3.3-1.71,2.16-4.07,5.5-6.66,9.82-5.15,8.68-12.14,22.08-17.25,40.13-2.4,8.93-4.54,19.23-5.99,30.68-1.02,11.25-1.53,23.84-.69,37.45,2.12,26.95,9.06,58.39,25.13,91.01-40.17-68.5-70.42-146.25-87.92-231.17-34.16-165.38-12.75-345.05,60.24-492.59,71.18-143.82,191.33-251.79,323.73-309.93,6.12-2.68,12.27-5.34,18.44-7.96,4.52.08,9.26-.03,14.34-.51,8.64-1.02,17.9-2.97,27.75-4.85,4.87-.94,9.84-2.16,14.91-3.46,5.01-1.18,10.12-2.36,15.26-3.54,5.14-1.26,10.29-2.61,15.38-4.07,5.09-1.14,10.19-2.32,15.24-3.46,4.99-1.3,9.9-2.57,14.67-3.79,4.79-.98,9.43-2.04,13.92-2.97,8.94-2.04,17.07-4.2,23.98-5.34,13.81-2.73,22.67-4.77,22.67-4.77,0,0-9.02-1.39-23.45-3.01-7.21-1.02-15.7-1.18-25.12-1.47-4.74-.04-9.68-.2-14.72-.16-5.09.33-10.29.65-15.57,1.02-5.32.41-10.74.77-16.14,1.47-5.38.85-10.82,1.79-16.19,2.81-10.78,1.79-21.25,4.97-30.99,8.35-9.84,3.18-18.72,7.62-26.36,12.18-3.85,2.24-7.36,4.69-10.51,7.09-1.75,1.43-3.06,3.02-4.55,4.56-106.53,42.94-208.22,109.64-283.17,205.96-89.44,115.02-137.18,263.41-144.13,416.97-14.07,310.71,155.62,600.19,406.21,707.79,61.04,26.26,125.73,39.6,190.7,42.21-35.44,3.17-66.71,7.27-94.44,12.87-7.77,1.47-15.32,3.3-22.62,5.09-7.23,1.55-14.2,3.26-20.94,5.13-13.44,4.03-25.67,7.29-36.85,11.37-11.21,4.16-21.1,7.82-29.78,11.57-8.68,3.71-16.11,7.37-22.18,10.59-11.98,6.15-18.28,10.64-18.28,10.64,0,0,4.28.98,11.92,2.65,7.64,1.35,18.58,2.97,31.53,4.69,13.04,1.47,28.23,2.44,44.37,2.69,16.19-.36,33.23-.73,50.09-3.34,16.79-1.92,33.43-6.07,48.48-10.51,15.13-4.85,28.83-11,40.07-17.4,21.94-13.77,34.32-29.25,32.24-45.8,17.99.31,35.98.01,53.91-1.26v-18.05c-119.22,8.4-233.81-22.89-332.76-85.05Z"/>
    <path d="M543.36,1665.53c14.99-.86,28.68-2.12,40.46-5.66,11.78-3.5,21.43-8.03,28.14-13.81,6.74-5.83,10.63-13.04,10.92-21.27-38.74-8.07-72.44-13.12-102.63-15.32-14.97-1.3-29.17-1.51-42.17-1.79-6.54-.08-12.83.12-18.94.37-6.07.24-11.76.37-17.25.77-22.17,1.79-39.81,4.56-52.07,7.5-12.33,2.85-19.01,5.58-19.01,5.58,0,0,3.77,2.04,10.59,5.18,6.83,3.01,16.34,7.7,28.09,12.26,11.9,4.24,25.36,9.66,40.4,13.45,7.5,2,15.12,3.99,22.9,5.74,7.9,1.55,15.91,2.93,23.86,4.12,7.88,1.34,15.91,2,23.79,2.4,7.82.37,15.5.73,22.94.49Z"/>
    <path d="M401.82,1579.48c13.98,3.1,26.71,5.54,38.34,5.34,11.51-.12,21.27-1.71,28.6-5.21,7.4-3.54,12.37-9.21,14.34-16.62-34.1-17.81-64.19-31.41-91.67-41.11-27.09-10.06-51.5-16.34-72.12-20.41-10.25-2.08-19.66-3.46-28.03-4.28-8.31-.94-15.38-1.47-21.33-1.63-11.81-.41-18.49.49-18.49.49,0,0,3.16,2.65,8.76,7.33,5.6,4.56,13.51,11.16,23.59,18.13,9.98,7.13,21.57,15.12,34.61,22.41,12.71,7.78,26.89,14.71,41.03,20.94,6.95,3.3,14.34,5.74,21.41,8.23,7.17,2.4,14.04,4.81,20.96,6.4Z"/>
    <path d="M316.65,1472.37c21.2,5.83,37.13,4.16,43.74-8.8-27.83-25.47-52.82-45.67-76.31-61.56-11.31-8.31-22.69-14.99-33.08-21.18-10.26-6.23-20.29-11.33-29.5-15.69-17.87-9.09-33.67-14.26-44.31-17.68-10.7-3.26-17.01-4.03-17.01-4.03,0,0,2.41,3.22,6.6,8.88,4.16,5.79,10.65,13.45,18.46,22.41,3.87,4.48,7.96,9.41,12.65,14.26,4.68,4.73,9.66,9.7,14.85,14.91,10.12,10.39,22.06,20.05,33.67,29.54,12.02,9.13,24.28,17.4,36.16,24.12,12.18,6.48,23.49,11.98,34.08,14.83Z"/>
    <path d="M191.89,1307.03c9.88,9.04,19.25,16.87,28.34,22.33,18.27,10.88,33.27,13.44,41.78,3.38-20.51-30.64-39.48-55.7-58-76.23-8.98-10.39-17.7-19.68-26.4-27.83-8.25-8.35-16.32-15.61-23.96-21.84-15.18-12.59-27.91-21.6-37.46-27.05-4.74-2.85-8.49-4.81-11-6.11-2.57-1.22-3.93-1.79-3.93-1.79,0,0,.36.86,1.1,2.57.71,1.63,1.75,4.16,3.3,7.17,3.03,6.15,7.37,14.83,12.73,25.06,5.22,10.22,12.4,21.51,19.72,33.49,7.49,11.98,16.48,23.88,25.26,35.53,9.43,11.24,18.82,22.12,28.52,31.33Z"/>
    <path d="M156.46,1164.06c14.53,14.67,27.69,20.94,37.46,14.06-3.03-8.35-6.19-16.38-9.47-24-3.36-7.62-6.17-15.11-9.45-22.08-6.66-13.97-12.55-26.93-19.07-38.7-12.55-23.55-25.42-42.7-36.65-58.02-5.68-7.58-11.28-14.26-16.24-19.88-4.83-5.67-9.25-10.39-13-14.06-7.48-7.38-12.28-10.8-12.28-10.8,0,0,.84,3.59,2.35,9.98,1.63,6.27,3.48,15.28,6.84,25.83,3.32,10.55,6.99,22.78,11.67,35.4,5.07,12.71,10.16,25.95,16.46,38.71,12.29,25.51,27.14,48.81,41.37,63.56Z"/>
    <path d="M91.84,844.11c.65,10.31,2.27,22.33,4.26,34.96.96,6.27,2,12.83,3.22,19.35,1.39,6.6,2.89,13.16,4.48,19.72,1.63,6.52,3.26,12.96,5.07,19.23,1.96,6.31,4.1,12.43,6.27,18.25,4.32,11.65,8.74,22.12,14.07,30.64,10.25,17.07,20.94,26.28,31.19,22.65-9.41-67.23-25.28-115.18-40.95-148.84-7.29-16.66-14.79-29.46-20.41-38.01-2.83-4.2-5.05-7.42-6.66-9.53-1.61-2.12-2.53-3.18-2.53-3.18,0,0-.1,3.46.23,9.57.36,6.11.92,14.79,1.75,25.18Z"/>
    <path d="M139.47,806.62c2.95,9.04,6.29,16.34,10.28,21.27,4.1,5.01,8.66,7.58,13.61,7.25,1.04-15.89,1.63-30.72,1.47-44.62.24-13.77-.59-26.85-1.43-38.87-.69-11.94-2.06-23.14-3.79-33.49-1.41-10.23-3.12-19.68-5.09-28.15-4.12-17.15-8.07-30.27-11.63-39.4-3.46-9.09-6.11-13.86-6.11-13.86,0,0-2.26,12.79-4.69,31.82-.9,9.62-1.83,20.82-2.58,32.68-.65,11.9-.47,24.73-.27,37.24,1,25.3,4.08,50.03,10.23,68.12Z"/>
    <path d="M202.56,667.24c15.99-56.02,20.29-100.19,19.57-132.9-.32-16.22-2.07-29.42-3.4-38.3-1.45-8.92-2.97-13.89-2.97-13.89,0,0-1.06,2.73-2.94,7.5-1.83,4.69-4.34,11.53-6.93,19.97-2.58,8.39-5.68,18.09-8.39,28.64-2.59,10.59-5.09,22-7.19,33.33-1.88,11.49-3.22,23.02-4.05,33.82-.88,10.8-.45,21.19.34,29.99,1.59,17.64,6.93,29.91,15.95,31.86Z"/>
    <path d="M276.02,515.35c25.2-46,37.22-84.46,42.33-114.04,2.67-14.5,3.53-26.69,3.71-35.2.31-8.31-.18-13.08-.18-13.08,0,0-1.41,2.12-3.96,5.91-2.38,3.91-5.76,9.53-9.63,16.34-8.01,13.32-17.25,32.27-25.2,51.46-3.7,9.78-7.13,19.72-9.88,29.21-2.77,9.33-4.38,18.74-5.35,26.81-1.9,16.18.38,28.48,8.16,32.59Z"/>
    <path d="M437.83,297.49c10.11-24.4,11.69-42.09,11.69-42.09,0,0-6.6,6.48-15.97,16.54-4.73,4.89-10.02,11.08-15.34,17.89-5.36,6.84-11.1,13.89-16.24,21.67-5.15,7.87-10,15.77-14.18,23.47-4.22,7.62-7.38,15.53-9.74,22.49-4.67,13.97-5.11,25.26,1,30.96,31.23-34.43,49.01-65.55,58.77-90.94Z"/>
    <path d="M528.98,277.16c7.05-5.54,13.35-11.08,18.93-16.75,5.56-5.79,10.53-11.25,14.97-16.42,4.41-5.25,8.19-10.51,11.49-15.44,6.48-10.06,11.08-18.13,13.89-24.4,2.79-6.11,3.89-9.86,3.89-9.86,0,0-6.95,3.99-17.04,10.43-9.86,7.09-22.97,16.26-34.85,27.38-5.93,5.58-11.67,11.37-16.81,17.03-5.09,5.74-9.37,11.9-12.73,17.36-6.7,11.29-9.27,21.03-5.01,27.58,8.68-5.42,16.36-11.04,23.26-16.91Z"/>
    <path d="M656.47,1577.28c5.27,4.68,11,9,17.19,13.49,24.75,17.23,57.49,31.54,97.7,34.84,2.85-16.91-9.33-33.61-27.19-48.89-8.96-8.27-19.42-16.01-30.36-24-10.92-8.39-22.45-15.89-33.57-24.28-11.27-7.7-22.08-16.17-32.09-23.38-9.98-7.74-19.09-14.71-26.81-20.82-7.55-6.43-13.85-11.37-18.21-14.87-4.3-3.79-6.76-5.87-6.76-5.87,0,0,.57,7.79,3.67,20.54,1.61,6.23,3.89,13.65,7.17,22.08,3.28,8.39,7.52,17.88,13.28,27.22,5.77,9.41,12.67,19.96,21.53,29.38,4.4,4.81,9.19,9.7,14.45,14.58Z"/>
    <path d="M505.49,1479.7c1.71,5.18,3.69,10.63,6.09,16.13,2.45,5.38,5.19,10.88,8.31,16.58,6.15,11.61,14.18,22.78,23.87,34.3,19.6,22.29,47.04,43.96,83.49,57.81,3.03-7.54,2.48-15.69-.43-24.57-2.94-8.92-8.25-18.33-14.99-27.91-6.79-9.45-14.69-20.17-23.39-29.99-4.28-5.22-8.62-10.63-13.12-15.81-4.48-5.13-9-10.15-13.36-15.57-4.38-5.26-8.76-10.35-13.1-15.24-4.24-5.18-8.31-10.19-12.26-14.95-8.05-9.21-14.89-18.82-21.07-26.16-11.94-15.56-19.64-25.5-19.64-25.5,0,0-.88,7.25-.2,19.76.65,12.39,2.75,30.52,9.8,51.09Z"/>
    <path d="M240.27,999.66c-3.99,5.38-7.96,11.9-12.04,19.52-8.27,15.32-15.4,35.4-19.03,60.71-1.61,12.67-2.75,26.65-1.75,41.6.45,7.49.84,15.4,2.16,23.39,1.2,7.98,2.83,16.26,4.73,24.77,11.22-1.91,18.32-16.26,23.06-35.37,5.01-19.19,8.34-43.39,11.55-66.86,1.51-11.61,3.48-23.31,4.68-33.94,1.59-10.8,3.1-20.66,4.36-29.01,2.69-16.91,4.42-27.79,4.42-27.79,0,0-4.36,3.06-10.96,9.82-3.24,3.34-7.05,7.7-11.18,13.16Z"/>
    <path d="M259.99,843.21c-2.1.98-5.11,2.57-8.6,4.93-7.09,4.64-16.79,12.22-27.28,24.28-9.72,12.06-20.8,28.56-28.46,50.85-1.94,5.54-4.03,11.45-5.56,17.68-1.49,6.23-2.83,12.79-4.01,19.76-2.65,13.89-3.08,29.05-3.16,45.59,10.55,1.14,19.88-9.98,27.95-26.16,3.92-8.07,8.19-17.48,12.04-27.42,3.83-10.39,7.66-20.74,11.37-30.76,1.83-5.25,3.6-10.39,5.25-15.4,1.85-5.13,3.69-9.98,5.42-14.71,3.36-9.49,6.23-18.21,9.25-25.59,2.77-7.42,4.97-13.53,6.44-17.81,1.53-4.28,2.61-6.68,2.61-6.68,0,0-1.18.45-3.26,1.42Z"/>
    <path d="M277.63,729.82c7.99-12.06,12.92-20.09,12.92-20.09,0,0-4.46.45-11.82,2.98-7.33,2.48-18.05,6.84-29.25,15.4-5.66,4.24-11.75,9.45-17.91,15.89-5.86,6.39-11.81,14.1-17.68,23.14-5.76,9.01-10.81,19.48-15.81,31.37-4.5,12.06-8.57,25.5-11.43,40.5,4.68,1.95,9.61.98,14.59-2.12,5.11-3.01,10.49-8.03,15.77-14.3,10.35-12.59,21.68-30.03,32.19-46.93,5.5-8.43,10.37-16.99,15.32-24.73,4.99-7.7,9.43-14.91,13.12-21.1Z"/>
    <path d="M343.64,587.14s-4.13-.65-11.37-.24c-7.33.32-17.27,2.16-29.21,7.01-12.22,4.6-25.51,13.04-39.56,26.28-6.65,6.89-13.53,14.91-20.23,24.32-6.17,9.82-12.77,20.66-18.09,33.49,7.72,5.91,18.35,1.59,30.5-6.89,6.11-4.24,12.02-9.82,18.66-15.64,6.58-5.83,13.04-12.22,19.33-18.7,26.75-26.52,49.97-49.63,49.97-49.63Z"/>
    <path d="M365.7,513.15c14.2-7.99,27.34-16.71,37.59-22.61,5.01-3.1,9.13-5.71,12.02-7.46,2.93-1.75,4.6-2.69,4.6-2.69,0,0-3.64-1.59-10.25-2.97-6.46-1.18-15.85-2.04-27.56-.69-22.88,2.97-56.1,15.81-85.68,56.06,2.85,3.62,6.94,5.17,11.75,5.25,4.89.08,10.65-1.26,16.89-3.59,6.27-2.2,12.71-5.74,19.74-9.33,6.99-3.59,14.1-7.7,20.9-11.98Z"/>
    <path d="M440.34,417.28c6.91-1.47,14.04-3.38,20.94-5.5,6.95-2.12,14.04-3.83,20.37-5.87,6.36-2.08,12.22-3.91,17.4-5.3,10.17-2.93,16.72-5.17,16.72-5.17,0,0-11.67-8.92-33.16-12.3-20.94-2.61-52.86.57-86.81,28.72,3.71,7.82,13.29,9.78,25.18,8.84,6.05-.45,12.41-2,19.36-3.42Z"/>
    <path d="M555.7,338.4c6.35.45,13.04.49,19.58.41,6.48-.28,13.12-.12,19.15-.28,6.05-.12,11.61-.45,16.36-.65,9.61-.04,15.89-.41,15.89-.41,0,0-2.22-2.65-6.72-6.36-4.52-3.59-11.41-8.84-20.51-12.43-4.59-1.83-9.74-3.51-15.52-4.81-5.83-1.39-12.2-2.28-19.01-2.12-6.89.08-14.38.61-22.37,2.24-7.85,1.91-16.26,4.65-25.08,8.44,1.77,7.86,9.86,12.06,20.51,14.18,5.38,1.1,11.31,1.38,17.72,1.79Z"/>
    <path d="M1478.82,1608.81c-5.52-.41-11.22-.53-17.27-.77-6.12-.24-12.43-.45-18.97-.37-12.96.29-27.19.49-42.17,1.79-30.17,2.2-63.87,7.25-102.61,15.32.26,8.23,4.2,15.44,10.92,21.27,6.72,5.78,16.34,10.31,28.15,13.81,11.77,3.54,25.43,4.81,40.44,5.66,7.41.24,15.11-.12,22.96-.49,7.86-.41,15.91-1.06,23.79-2.4,7.95-1.18,15.91-2.57,23.84-4.12,7.76-1.75,15.44-3.75,22.88-5.74,15.05-3.79,28.52-9.21,40.41-13.45,11.76-4.56,21.29-9.25,28.12-12.26,6.78-3.14,10.59-5.18,10.59-5.18,0,0-6.68-2.73-19.01-5.58-12.3-2.93-29.92-5.71-52.07-7.5Z"/>
    <path d="M1650.72,1495.55c-5.91.16-13,.69-21.33,1.63-8.39.82-17.78,2.2-28.05,4.28-20.58,4.07-45,10.35-72.12,20.41-27.47,9.7-57.53,23.31-91.63,41.11,1.94,7.42,6.97,13.08,14.32,16.62,7.33,3.5,17.09,5.09,28.58,5.21,11.63.2,24.37-2.24,38.34-5.34,6.95-1.59,13.81-3.99,21-6.4,7.05-2.48,14.47-4.93,21.41-8.23,14.12-6.23,28.28-13.16,41.01-20.94,13.06-7.29,24.65-15.28,34.61-22.41,10.09-6.97,17.99-13.57,23.57-18.13,5.62-4.69,8.8-7.33,8.8-7.33,0,0-6.7-.9-18.52-.49Z"/>
    <path d="M1699.16,1365.13c-9.17,4.36-19.21,9.45-29.49,15.69-10.35,6.19-21.78,12.87-33.08,21.18-23.47,15.89-48.49,36.1-76.29,61.56,6.58,12.96,22.53,14.63,43.76,8.8,10.57-2.85,21.88-8.35,34.06-14.83,11.88-6.72,24.16-14.99,36.16-24.12,11.61-9.49,23.55-19.15,33.69-29.54,5.19-5.21,10.13-10.19,14.85-14.91,4.68-4.85,8.76-9.78,12.65-14.26,7.78-8.96,14.3-16.62,18.42-22.41,4.26-5.67,6.62-8.88,6.62-8.88,0,0-6.3.78-17.03,4.03-10.62,3.42-26.38,8.6-44.31,17.68Z"/>
    <path d="M1804.48,1179.79c-9.51,5.46-22.31,14.46-37.45,27.05-7.68,6.23-15.7,13.49-23.95,21.84-8.72,8.15-17.42,17.44-26.42,27.83-18.52,20.54-37.46,45.59-57.97,76.23,8.52,10.06,23.48,7.5,41.76-3.38,9.09-5.46,18.46-13.28,28.34-22.33,9.68-9.21,19.11-20.09,28.52-31.33,8.78-11.65,17.76-23.55,25.26-35.53,7.35-11.98,14.5-23.26,19.74-33.49,5.36-10.23,9.7-18.91,12.67-25.06,1.59-3.01,2.61-5.54,3.36-7.17.72-1.71,1.08-2.57,1.08-2.57,0,0-1.36.57-3.93,1.79-2.48,1.3-6.23,3.26-11,6.11Z"/>
    <path d="M1830.64,1001.37c-3.75,3.67-8.19,8.39-13.04,14.06-4.91,5.62-10.56,12.3-16.22,19.88-11.2,15.32-24.1,34.47-36.61,58.02-6.54,11.77-12.47,24.73-19.11,38.7-3.28,6.97-6.09,14.47-9.43,22.08-3.3,7.62-6.44,15.65-9.49,24,9.78,6.89,22.91.61,37.48-14.06,14.2-14.75,29.07-38.05,41.39-63.56,6.25-12.75,11.33-25.99,16.38-38.71,4.73-12.63,8.39-24.85,11.74-35.4,3.36-10.55,5.19-19.56,6.84-25.83,1.48-6.39,2.3-9.98,2.3-9.98,0,0-4.76,3.42-12.24,10.8Z"/>
    <path d="M1791.46,986.26c5.32-8.52,9.76-18.99,14.08-30.64,2.16-5.83,4.28-11.94,6.3-18.25,1.75-6.27,3.42-12.71,5.03-19.23,1.57-6.56,3.1-13.12,4.5-19.72,1.2-6.52,2.22-13.08,3.2-19.35,2-12.63,3.58-24.65,4.26-34.96.85-10.39,1.38-19.07,1.77-25.18.28-6.11.23-9.57.23-9.57,0,0-.92,1.06-2.53,3.18-1.61,2.12-3.83,5.34-6.66,9.53-5.64,8.55-13.12,21.35-20.41,38.01-15.7,33.66-31.55,81.61-40.98,148.84,10.27,3.62,20.94-5.58,31.22-22.65Z"/>
    <path d="M1770.89,827.89c3.99-4.93,7.36-12.22,10.33-21.27,6.15-18.09,9.21-42.82,10.2-68.12.18-12.51.39-25.34-.28-37.24-.76-11.85-1.69-23.06-2.57-32.68-2.43-19.03-4.69-31.82-4.69-31.82,0,0-2.65,4.77-6.13,13.86-3.52,9.13-7.47,22.24-11.59,39.4-1.98,8.47-3.71,17.93-5.11,28.15-1.73,10.35-3.07,21.55-3.79,33.49-.82,12.02-1.67,25.1-1.43,38.87-.16,13.9.45,28.72,1.47,44.62,4.97.33,9.5-2.24,13.59-7.25Z"/>
    <path d="M1734.04,635.38c.84-8.8,1.24-19.19.35-29.99-.8-10.79-2.16-22.33-4.01-33.82-2.12-11.32-4.65-22.73-7.21-33.33-2.73-10.55-5.83-20.25-8.42-28.64-2.55-8.43-5.05-15.28-6.91-19.97-1.89-4.77-2.95-7.5-2.95-7.5,0,0-1.48,4.97-2.93,13.89-1.34,8.88-3.07,22.08-3.42,38.3-.74,32.72,3.56,76.88,19.56,132.9,9.06-1.96,14.42-14.22,15.95-31.86Z"/>
    <path d="M1602.32,401.31c5.13,29.58,17.15,68.04,42.35,114.04,7.76-4.11,10.04-16.42,8.13-32.59-.96-8.07-2.57-17.48-5.34-26.81-2.77-9.49-6.19-19.44-9.88-29.21-7.94-19.19-17.19-38.13-25.2-51.46-3.89-6.8-7.25-12.43-9.66-16.34-2.55-3.79-3.95-5.91-3.95-5.91,0,0-.45,4.77-.16,13.08.16,8.51,1.04,20.7,3.71,35.2Z"/>
    <path d="M1541.59,388.43c6.14-5.7,5.66-16.99,1-30.96-2.34-6.97-5.52-14.87-9.74-22.49-4.16-7.7-9.02-15.6-14.16-23.47-5.13-7.78-10.85-14.83-16.22-21.67-5.34-6.81-10.63-13-15.36-17.89-9.39-10.06-15.97-16.54-15.97-16.54,0,0,1.61,17.68,11.69,42.09,9.74,25.38,27.54,56.51,58.75,90.94Z"/>
    <path d="M1346.33,228.56c3.26,4.93,7.05,10.19,11.45,15.44,4.44,5.18,9.43,10.63,15,16.42,5.6,5.66,11.9,11.2,18.92,16.75,6.89,5.86,14.59,11.49,23.26,16.91,4.28-6.56,1.7-16.3-4.99-27.58-3.38-5.46-7.68-11.61-12.75-17.36-5.16-5.66-10.84-11.45-16.83-17.03-11.83-11.12-24.93-20.29-34.81-27.38-10.08-6.44-17.05-10.43-17.05-10.43,0,0,1.1,3.75,3.89,9.86,2.79,6.27,7.42,14.34,13.92,24.4Z"/>
    <path d="M1313.47,1506.1c3.28-8.44,5.56-15.85,7.17-22.08,3.12-12.75,3.67-20.54,3.67-20.54,0,0-2.45,2.08-6.74,5.87-4.38,3.5-10.67,8.44-18.25,14.87-7.7,6.11-16.81,13.08-26.77,20.82-10.02,7.21-20.84,15.68-32.1,23.38-11.13,8.39-22.65,15.89-33.57,24.28-10.94,7.99-21.39,15.73-30.34,24-17.91,15.28-30.07,31.98-27.23,48.89,40.25-3.3,72.97-17.6,97.7-34.84,6.19-4.48,11.96-8.8,17.21-13.49,5.26-4.89,10.02-9.78,14.44-14.58,8.86-9.41,15.79-19.97,21.53-29.38,5.74-9.33,10-18.83,13.28-27.22Z"/>
    <path d="M1376.86,1546.72c9.74-11.53,17.76-22.7,23.9-34.3,3.13-5.7,5.89-11.2,8.33-16.58,2.4-5.5,4.36-10.96,6.09-16.13,7.05-20.58,9.14-38.7,9.82-51.09.65-12.51-.23-19.76-.23-19.76,0,0-7.66,9.94-19.62,25.5-6.19,7.34-13.02,16.95-21.08,26.16-3.97,4.77-8.05,9.78-12.26,14.95-4.34,4.89-8.72,9.98-13.12,15.24-4.32,5.42-8.86,10.43-13.34,15.57-4.5,5.17-8.84,10.59-13.12,15.81-8.7,9.82-16.6,20.54-23.39,29.99-6.76,9.58-12.06,18.99-14.97,27.91-2.92,8.88-3.5,17.03-.43,24.57,36.43-13.85,63.85-35.53,83.42-57.81Z"/>
    <path d="M1680.4,999.66c-4.11-5.46-7.93-9.82-11.2-13.16-6.58-6.76-10.94-9.82-10.94-9.82,0,0,1.75,10.88,4.42,27.79,1.24,8.35,2.77,18.21,4.34,29.01,1.2,10.63,3.2,22.33,4.7,33.94,3.24,23.47,6.52,47.67,11.59,66.86,4.71,19.11,11.82,33.45,23,35.37,1.89-8.52,3.54-16.79,4.76-24.77,1.31-7.99,1.71-15.89,2.12-23.39,1.06-14.95-.14-28.93-1.71-41.6-3.65-25.3-10.8-45.39-19.05-60.71-4.07-7.62-8.05-14.14-12.04-19.52Z"/>
    <path d="M1737.73,1006.3c-.06-16.54-.49-31.7-3.14-45.59-1.18-6.97-2.53-13.53-4.03-19.76-1.49-6.23-3.61-12.14-5.54-17.68-7.68-22.29-18.74-38.79-28.46-50.85-10.49-12.06-20.17-19.64-27.25-24.28-3.48-2.36-6.54-3.95-8.6-4.93-2.08-.98-3.26-1.42-3.26-1.42,0,0,1.04,2.4,2.59,6.68,1.47,4.28,3.69,10.39,6.46,17.81,2.97,7.37,5.86,16.09,9.23,25.59,1.73,4.73,3.54,9.57,5.42,14.71,1.67,5.01,3.42,10.15,5.25,15.4,3.71,10.02,7.54,20.37,11.37,30.76,3.85,9.94,8.17,19.36,12.02,27.42,8.09,16.18,17.42,27.3,27.95,26.16Z"/>
    <path d="M1706.8,767.14c-5.87-9.04-11.84-16.74-17.68-23.14-6.19-6.44-12.26-11.65-17.93-15.89-11.18-8.56-21.92-12.92-29.23-15.4-7.38-2.53-11.82-2.98-11.82-2.98,0,0,4.89,8.03,12.9,20.09,3.69,6.19,8.11,13.41,13.1,21.1,4.98,7.74,9.82,16.3,15.36,24.73,10.49,16.91,21.82,34.35,32.17,46.93,5.3,6.27,10.65,11.29,15.74,14.3,4.99,3.1,9.92,4.07,14.61,2.12-2.83-15-6.95-28.44-11.41-40.5-5.01-11.9-10.04-22.37-15.81-31.37Z"/>
    <path d="M1657.17,620.18c-14.07-13.24-27.36-21.67-39.54-26.28-11.96-4.85-21.9-6.69-29.23-7.01-7.23-.41-11.37.24-11.37.24,0,0,23.22,23.1,49.96,49.63,6.33,6.48,12.77,12.87,19.35,18.7,6.62,5.83,12.55,11.41,18.64,15.64,12.16,8.48,22.79,12.8,30.52,6.89-5.32-12.83-11.94-23.67-18.09-33.49-6.68-9.41-13.61-17.44-20.23-24.32Z"/>
    <path d="M1538.55,476.72c-11.71-1.35-21.1-.49-27.54.69-6.6,1.38-10.23,2.97-10.23,2.97,0,0,1.65.94,4.57,2.69,2.93,1.75,7.03,4.36,12.04,7.46,10.25,5.91,23.39,14.63,37.57,22.61,6.84,4.28,13.93,8.39,20.94,11.98,7.03,3.59,13.47,7.13,19.74,9.33,6.19,2.32,11.96,3.67,16.87,3.59,4.85-.08,8.9-1.63,11.8-5.25-29.6-40.26-62.85-53.09-85.75-56.06Z"/>
    <path d="M1438.06,383.14c-21.49,3.38-33.16,12.3-33.16,12.3,0,0,6.56,2.24,16.74,5.17,5.14,1.38,11.05,3.22,17.42,5.3,6.28,2.04,13.39,3.75,20.33,5.87,6.95,2.12,14.06,4.03,20.99,5.5,6.92,1.42,13.3,2.97,19.29,3.42,11.92.94,21.53-1.02,25.18-8.84-33.92-28.15-65.86-31.33-86.78-28.72Z"/>
    <path d="M1345.39,338.81c6.56.08,13.2.04,19.6-.41,6.39-.41,12.32-.69,17.7-1.79,10.69-2.12,18.74-6.32,20.51-14.18-8.82-3.79-17.25-6.52-25.1-8.44-7.96-1.63-15.46-2.16-22.35-2.24-6.8-.16-13.18.73-18.99,2.12-5.81,1.3-10.98,2.98-15.52,4.81-9.11,3.59-16.01,8.84-20.53,12.43-4.5,3.71-6.74,6.36-6.74,6.36,0,0,6.29.37,15.89.41,4.77.2,10.35.53,16.4.65,6.03.16,12.63,0,19.13.28Z"/>
    <path d="M1367.47,1692.71c-8.66-3.75-18.6-7.42-29.78-11.57-11.18-4.07-23.41-7.33-36.85-11.37-6.76-1.88-13.69-3.59-20.94-5.13-7.27-1.79-14.85-3.63-22.61-5.09-27.73-5.6-59.01-9.7-94.45-12.87,64.97-2.62,129.66-15.95,190.69-42.21,250.59-107.6,420.32-397.08,406.25-707.79-6.95-153.56-54.72-301.95-144.15-416.97-74.94-96.33-176.65-163.03-283.19-205.97-1.49-1.54-2.81-3.12-4.54-4.55-3.18-2.41-6.64-4.85-10.49-7.09-7.64-4.56-16.56-9-26.38-12.18-9.74-3.38-20.21-6.56-31.01-8.35-5.36-1.02-10.75-1.95-16.17-2.81-5.4-.69-10.82-1.06-16.13-1.47-5.24-.37-10.49-.69-15.57-1.02-5.05-.04-10,.12-14.69.16-9.47.29-17.97.45-25.18,1.47-14.38,1.63-23.41,3.01-23.41,3.01,0,0,8.84,2.04,22.65,4.77,6.93,1.14,15.06,3.3,23.96,5.34,4.48.94,9.12,2,13.93,2.97,4.81,1.22,9.7,2.49,14.69,3.79,5.01,1.14,10.11,2.32,15.24,3.46,5.09,1.47,10.2,2.81,15.34,4.07,5.18,1.18,10.29,2.36,15.3,3.54,5.03,1.3,10.04,2.53,14.91,3.46,9.82,1.88,19.09,3.83,27.71,4.85,5.09.48,9.83.59,14.34.51,6.18,2.62,12.33,5.28,18.46,7.96,132.38,58.14,252.54,166.11,323.74,309.93,72.99,147.53,94.36,327.21,60.24,492.59-17.37,84.23-47.41,161.28-87.1,229.35,15.45-31.97,22.26-62.74,24.3-89.19.81-13.61.33-26.2-.69-37.45-1.42-11.45-3.56-21.75-6.02-30.68-5.06-18.05-12.06-31.45-17.2-40.13-2.63-4.32-4.95-7.66-6.68-9.82-1.71-2.2-2.69-3.3-2.69-3.3,0,0-.04.77-.08,2.16,0,1.43,0,3.46-.18,5.95-.28,5.17-.65,12.55-.9,21.59-.23,9.09-1.28,19.35-1.65,30.97-.57,11.45-1.79,23.59-2.28,36.3-1.1,12.3-1.7,25.22-2.3,37.53-.77,12.1-.77,24.04-.39,34.59.65,20.98,4.77,37.78,15.79,43.27-25.41,43.29-54.69,82.97-87.35,118.3,19.53-26.14,31.64-53.09,38.76-77.39,3.59-13.89,6.17-26.69,7.19-38.79.96-12.23,1.06-23.27.36-33.21-1.85-20.29-5.58-35.49-9.51-46.12-3.87-10.59-7.03-16.18-7.03-16.18,0,0-.69,3.06-1.91,8.31-1.04,5.42-3.1,12.75-5.38,21.84-1.18,4.52-2.24,9.62-3.62,14.83-1.41,5.13-2.89,10.72-4.46,16.46-2.86,11.77-6.77,23.71-9.94,36.55-3.65,12.59-7.21,25.47-10.39,37.93-3.4,12.14-5.91,24.57-7.92,35.45-3.74,21.23-3.27,39.34,6.13,48.46-32.67,34.15-68.46,64.11-106.74,89.39,24.95-20.66,42.65-44.31,54.79-66.84,13.63-26.07,20.25-50.81,22.78-71.75,1.26-10.63,1.63-20.09,1.55-28.36-.18-8.35-1.04-15.64-1.86-21.59-1.75-11.81-3.85-18.33-3.85-18.33,0,0-1.34,2.81-3.69,7.78-2.38,5.05-5.56,12.47-9.9,20.94-4.24,8.6-9.07,18.94-14.73,29.66-5.44,11.2-11.75,22.65-17.84,34.71-2.95,6.11-6.35,11.77-9.45,17.84-2.99,5.95-6.05,11.98-9.08,17.93-6.14,11.49-11.31,23.51-15.75,34.02-4.41,10.63-7.4,20.74-8.29,29.74-.91,8.49.15,15.7,3.92,21.67-98.96,62.15-213.54,93.44-332.76,85.04v18.05c17.92,1.27,35.9,1.57,53.89,1.26-2.06,16.56,10.32,32.03,32.26,45.8,11.24,6.39,24.95,12.55,40.07,17.4,15.08,4.44,31.7,8.6,48.49,10.51,16.86,2.61,33.88,2.97,50.11,3.34,16.1-.24,31.29-1.22,44.35-2.69,12.98-1.71,23.92-3.34,31.53-4.69,7.62-1.67,11.92-2.65,11.92-2.65,0,0-6.34-4.48-18.25-10.64-6.09-3.22-13.53-6.89-22.21-10.59Z"/>
    <path d="M1043.73,1617.13c10.24-.85,61.04-19.37,61.05-71.52.01-30.36-29.7-55.18-60.85-35.27-16.33,8.15-30.65,19.52-40.31,35.14-15.71,25.42-22.65,52.7-23.1,77.98h-5.36c-1.09-8.44-1.72-17.81-1.36-28.58,6.08-80.74,30.97-75.97,30.97-101.09,0-39.64-19.48-71.48-41.86-97.55q-1.5-2.76-2.59-5.57s-.9,2.49-2.6,5.57c-22.38,26.06-41.85,57.91-41.85,97.55,0,25.11,24.88,20.35,30.97,101.09.36,10.77-.27,20.14-1.36,28.58h-5.36c-.44-25.29-7.39-52.56-23.1-77.98-9.66-15.62-23.98-26.99-40.31-35.14-31.15-19.92-60.86,4.91-60.85,35.27.01,52.15,50.82,70.67,61.05,71.52-16.72-9.93-19.34-30.24-3.87-36.86,8.7-3.72,32.51,3.03,42.49,43.19h-16.58v19.84h19.9c1.57,27.39-19.63,75.99-59.4,53.3,5.14,17.17,40.57,25.14,58.78,1.62,10.74-13.87,18.24-33.15,20.87-54.92h2.86c-2.71,12.52-5.51,22.97-5.53,33.42-.04,19.48,13.48,36.89,21.21,45.34l2.66,2.81,2.58-2.72c7.73-8.42,21.33-25.88,21.29-45.42-.02-10.46-2.82-20.9-5.53-33.42h2.86c2.63,21.77,10.13,41.05,20.87,54.92,18.21,23.52,53.64,15.56,58.78-1.62-39.77,22.69-60.97-25.91-59.4-53.3h19.9v-19.84h-16.58c9.98-40.16,33.79-46.91,42.49-43.19,15.47,6.62,12.86,26.93-3.86,36.86Z"/>
    <path d="M492.61,1542.55c3.77-5.97,4.83-13.17,3.94-21.66-.9-9-3.91-19.11-8.31-29.74-4.4-10.51-9.61-22.53-15.7-34.02-3.08-5.95-6.14-11.98-9.13-17.93-3.12-6.07-6.48-11.73-9.43-17.84-6.13-12.06-12.45-23.51-17.87-34.71-5.66-10.72-10.49-21.07-14.71-29.66-4.36-8.48-7.51-15.89-9.88-20.94-2.37-4.97-3.73-7.78-3.73-7.78,0,0-2.08,6.52-3.85,18.33-.8,5.95-1.69,13.24-1.83,21.59-.1,8.27.26,17.73,1.53,28.36,2.53,20.94,9.14,45.67,22.75,71.75,12.16,22.5,29.82,46.13,54.72,66.77-38.24-25.27-73.99-55.21-106.64-89.33,9.39-9.12,9.86-27.23,6.12-48.45-2-10.88-4.48-23.31-7.92-35.45-3.16-12.47-6.74-25.34-10.35-37.93-3.24-12.83-7.15-24.77-9.98-36.55-1.55-5.74-3.05-11.33-4.46-16.46-1.39-5.22-2.47-10.31-3.64-14.83-2.24-9.08-4.3-16.42-5.36-21.84-1.22-5.26-1.91-8.31-1.91-8.31,0,0-3.18,5.58-6.99,16.18-3.97,10.63-7.68,25.83-9.55,46.12-.67,9.94-.59,20.98.37,33.21,1.02,12.1,3.63,24.89,7.19,38.79,7.11,24.26,19.17,51.15,38.65,77.25-32.62-35.31-61.98-74.82-87.35-118.08,11.14-5.42,15.27-22.29,15.89-43.35.43-10.55.43-22.49-.36-34.59-.59-12.3-1.18-25.22-2.32-37.53-.44-12.71-1.67-24.85-2.26-36.3-.36-11.61-1.45-21.88-1.61-30.97-.26-9.05-.61-16.42-.92-21.59-.2-2.49-.2-4.52-.23-5.95-.04-1.38-.08-2.16-.08-2.16,0,0-.94,1.1-2.67,3.3-1.71,2.16-4.07,5.5-6.66,9.82-5.15,8.68-12.14,22.08-17.25,40.13-2.4,8.93-4.54,19.23-5.99,30.68-1.02,11.25-1.53,23.84-.69,37.45,2.12,26.95,9.06,58.39,25.13,91.01-40.17-68.5-70.42-146.25-87.92-231.17-34.16-165.38-12.75-345.05,60.24-492.59,71.18-143.82,191.33-251.79,323.73-309.93,6.12-2.68,12.27-5.34,18.44-7.96,4.52.08,9.26-.03,14.34-.51,8.64-1.02,17.9-2.97,27.75-4.85,4.87-.94,9.84-2.16,14.91-3.46,5.01-1.18,10.12-2.36,15.26-3.54,5.14-1.26,10.29-2.61,15.38-4.07,5.09-1.14,10.19-2.32,15.24-3.46,4.99-1.3,9.9-2.57,14.67-3.79,4.79-.98,9.43-2.04,13.92-2.97,8.94-2.04,17.07-4.2,23.98-5.34,13.81-2.73,22.67-4.77,22.67-4.77,0,0-9.02-1.39-23.45-3.01-7.21-1.02-15.7-1.18-25.12-1.47-4.74-.04-9.68-.2-14.72-.16-5.09.33-10.29.65-15.57,1.02-5.32.41-10.74.77-16.14,1.47-5.38.85-10.82,1.79-16.19,2.81-10.78,1.79-21.25,4.97-30.99,8.35-9.84,3.18-18.72,7.62-26.36,12.18-3.85,2.24-7.36,4.69-10.51,7.09-1.75,1.43-3.06,3.02-4.55,4.56-106.53,42.94-208.22,109.64-283.17,205.96-89.44,115.02-137.18,263.41-144.13,416.97-14.07,310.71,155.62,600.19,406.21,707.79,61.04,26.26,125.73,39.6,190.7,42.21-35.44,3.17-66.71,7.27-94.44,12.87-7.77,1.47-15.32,3.3-22.62,5.09-7.23,1.55-14.2,3.26-20.94,5.13-13.44,4.03-25.67,7.29-36.85,11.37-11.21,4.16-21.1,7.82-29.78,11.57-8.68,3.71-16.11,7.37-22.18,10.59-11.98,6.15-18.28,10.64-18.28,10.64,0,0,4.28.98,11.92,2.65,7.64,1.35,18.58,2.97,31.53,4.69,13.04,1.47,28.23,2.44,44.37,2.69,16.19-.36,33.23-.73,50.09-3.34,16.79-1.92,33.43-6.07,48.48-10.51,15.13-4.85,28.83-11,40.07-17.4,21.94-13.77,34.32-29.25,32.24-45.8,17.99.31,35.98.01,53.91-1.26v-18.05c-119.22,8.4-233.81-22.89-332.76-85.05Z"/>
    <path d="M543.36,1665.53c14.99-.86,28.68-2.12,40.46-5.66,11.78-3.5,21.43-8.03,28.14-13.81,6.74-5.83,10.63-13.04,10.92-21.27-38.74-8.07-72.44-13.12-102.63-15.32-14.97-1.3-29.17-1.51-42.17-1.79-6.54-.08-12.83.12-18.94.37-6.07.24-11.76.37-17.25.77-22.17,1.79-39.81,4.56-52.07,7.5-12.33,2.85-19.01,5.58-19.01,5.58,0,0,3.77,2.04,10.59,5.18,6.83,3.01,16.34,7.7,28.09,12.26,11.9,4.24,25.36,9.66,40.4,13.45,7.5,2,15.12,3.99,22.9,5.74,7.9,1.55,15.91,2.93,23.86,4.12,7.88,1.34,15.91,2,23.79,2.4,7.82.37,15.5.73,22.94.49Z"/>
    <path d="M401.82,1579.48c13.98,3.1,26.71,5.54,38.34,5.34,11.51-.12,21.27-1.71,28.6-5.21,7.4-3.54,12.37-9.21,14.34-16.62-34.1-17.81-64.19-31.41-91.67-41.11-27.09-10.06-51.5-16.34-72.12-20.41-10.25-2.08-19.66-3.46-28.03-4.28-8.31-.94-15.38-1.47-21.33-1.63-11.81-.41-18.49.49-18.49.49,0,0,3.16,2.65,8.76,7.33,5.6,4.56,13.51,11.16,23.59,18.13,9.98,7.13,21.57,15.12,34.61,22.41,12.71,7.78,26.89,14.71,41.03,20.94,6.95,3.3,14.34,5.74,21.41,8.23,7.17,2.4,14.04,4.81,20.96,6.4Z"/>
    <path d="M316.65,1472.37c21.2,5.83,37.13,4.16,43.74-8.8-27.83-25.47-52.82-45.67-76.31-61.56-11.31-8.31-22.69-14.99-33.08-21.18-10.26-6.23-20.29-11.33-29.5-15.69-17.87-9.09-33.67-14.26-44.31-17.68-10.7-3.26-17.01-4.03-17.01-4.03,0,0,2.41,3.22,6.6,8.88,4.16,5.79,10.65,13.45,18.46,22.41,3.87,4.48,7.96,9.41,12.65,14.26,4.68,4.73,9.66,9.7,14.85,14.91,10.12,10.39,22.06,20.05,33.67,29.54,12.02,9.13,24.28,17.4,36.16,24.12,12.18,6.48,23.49,11.98,34.08,14.83Z"/>
    <path d="M191.89,1307.03c9.88,9.04,19.25,16.87,28.34,22.33,18.27,10.88,33.27,13.44,41.78,3.38-20.51-30.64-39.48-55.7-58-76.23-8.98-10.39-17.7-19.68-26.4-27.83-8.25-8.35-16.32-15.61-23.96-21.84-15.18-12.59-27.91-21.6-37.46-27.05-4.74-2.85-8.49-4.81-11-6.11-2.57-1.22-3.93-1.79-3.93-1.79,0,0,.36.86,1.1,2.57.71,1.63,1.75,4.16,3.3,7.17,3.03,6.15,7.37,14.83,12.73,25.06,5.22,10.22,12.4,21.51,19.72,33.49,7.49,11.98,16.48,23.88,25.26,35.53,9.43,11.24,18.82,22.12,28.52,31.33Z"/>
    <path d="M156.46,1164.06c14.53,14.67,27.69,20.94,37.46,14.06-3.03-8.35-6.19-16.38-9.47-24-3.36-7.62-6.17-15.11-9.45-22.08-6.66-13.97-12.55-26.93-19.07-38.7-12.55-23.55-25.42-42.7-36.65-58.02-5.68-7.58-11.28-14.26-16.24-19.88-4.83-5.67-9.25-10.39-13-14.06-7.48-7.38-12.28-10.8-12.28-10.8,0,0,.84,3.59,2.35,9.98,1.63,6.27,3.48,15.28,6.84,25.83,3.32,10.55,6.99,22.78,11.67,35.4,5.07,12.71,10.16,25.95,16.46,38.71,12.29,25.51,27.14,48.81,41.37,63.56Z"/>
    <path d="M91.84,844.11c.65,10.31,2.27,22.33,4.26,34.96.96,6.27,2,12.83,3.22,19.35,1.39,6.6,2.89,13.16,4.48,19.72,1.63,6.52,3.26,12.96,5.07,19.23,1.96,6.31,4.1,12.43,6.27,18.25,4.32,11.65,8.74,22.12,14.07,30.64,10.25,17.07,20.94,26.28,31.19,22.65-9.41-67.23-25.28-115.18-40.95-148.84-7.29-16.66-14.79-29.46-20.41-38.01-2.83-4.2-5.05-7.42-6.66-9.53-1.61-2.12-2.53-3.18-2.53-3.18,0,0-.1,3.46.23,9.57.36,6.11.92,14.79,1.75,25.18Z"/>
    <path d="M139.47,806.62c2.95,9.04,6.29,16.34,10.28,21.27,4.1,5.01,8.66,7.58,13.61,7.25,1.04-15.89,1.63-30.72,1.47-44.62.24-13.77-.59-26.85-1.43-38.87-.69-11.94-2.06-23.14-3.79-33.49-1.41-10.23-3.12-19.68-5.09-28.15-4.12-17.15-8.07-30.27-11.63-39.4-3.46-9.09-6.11-13.86-6.11-13.86,0,0-2.26,12.79-4.69,31.82-.9,9.62-1.83,20.82-2.58,32.68-.65,11.9-.47,24.73-.27,37.24,1,25.3,4.08,50.03,10.23,68.12Z"/>
    <path d="M202.56,667.24c15.99-56.02,20.29-100.19,19.57-132.9-.32-16.22-2.07-29.42-3.4-38.3-1.45-8.92-2.97-13.89-2.97-13.89,0,0-1.06,2.73-2.94,7.5-1.83,4.69-4.34,11.53-6.93,19.97-2.58,8.39-5.68,18.09-8.39,28.64-2.59,10.59-5.09,22-7.19,33.33-1.88,11.49-3.22,23.02-4.05,33.82-.88,10.8-.45,21.19.34,29.99,1.59,17.64,6.93,29.91,15.95,31.86Z"/>
    <path d="M276.02,515.35c25.2-46,37.22-84.46,42.33-114.04,2.67-14.5,3.53-26.69,3.71-35.2.31-8.31-.18-13.08-.18-13.08,0,0-1.41,2.12-3.96,5.91-2.38,3.91-5.76,9.53-9.63,16.34-8.01,13.32-17.25,32.27-25.2,51.46-3.7,9.78-7.13,19.72-9.88,29.21-2.77,9.33-4.38,18.74-5.35,26.81-1.9,16.18.38,28.48,8.16,32.59Z"/>
    <path d="M437.83,297.49c10.11-24.4,11.69-42.09,11.69-42.09,0,0-6.6,6.48-15.97,16.54-4.73,4.89-10.02,11.08-15.34,17.89-5.36,6.84-11.1,13.89-16.24,21.67-5.15,7.87-10,15.77-14.18,23.47-4.22,7.62-7.38,15.53-9.74,22.49-4.67,13.97-5.11,25.26,1,30.96,31.23-34.43,49.01-65.55,58.77-90.94Z"/>
    <path d="M528.98,277.16c7.05-5.54,13.35-11.08,18.93-16.75,5.56-5.79,10.53-11.25,14.97-16.42,4.41-5.25,8.19-10.51,11.49-15.44,6.48-10.06,11.08-18.13,13.89-24.4,2.79-6.11,3.89-9.86,3.89-9.86,0,0-6.95,3.99-17.04,10.43-9.86,7.09-22.97,16.26-34.85,27.38-5.93,5.58-11.67,11.37-16.81,17.03-5.09,5.74-9.37,11.9-12.73,17.36-6.7,11.29-9.27,21.03-5.01,27.58,8.68-5.42,16.36-11.04,23.26-16.91Z"/>
    <path d="M656.47,1577.28c5.27,4.68,11,9,17.19,13.49,24.75,17.23,57.49,31.54,97.7,34.84,2.85-16.91-9.33-33.61-27.19-48.89-8.96-8.27-19.42-16.01-30.36-24-10.92-8.39-22.45-15.89-33.57-24.28-11.27-7.7-22.08-16.17-32.09-23.38-9.98-7.74-19.09-14.71-26.81-20.82-7.55-6.43-13.85-11.37-18.21-14.87-4.3-3.79-6.76-5.87-6.76-5.87,0,0,.57,7.79,3.67,20.54,1.61,6.23,3.89,13.65,7.17,22.08,3.28,8.39,7.52,17.88,13.28,27.22,5.77,9.41,12.67,19.96,21.53,29.38,4.4,4.81,9.19,9.7,14.45,14.58Z"/>
    <path d="M505.49,1479.7c1.71,5.18,3.69,10.63,6.09,16.13,2.45,5.38,5.19,10.88,8.31,16.58,6.15,11.61,14.18,22.78,23.87,34.3,19.6,22.29,47.04,43.96,83.49,57.81,3.03-7.54,2.48-15.69-.43-24.57-2.94-8.92-8.25-18.33-14.99-27.91-6.79-9.45-14.69-20.17-23.39-29.99-4.28-5.22-8.62-10.63-13.12-15.81-4.48-5.13-9-10.15-13.36-15.57-4.38-5.26-8.76-10.35-13.1-15.24-4.24-5.18-8.31-10.19-12.26-14.95-8.05-9.21-14.89-18.82-21.07-26.16-11.94-15.56-19.64-25.5-19.64-25.5,0,0-.88,7.25-.2,19.76.65,12.39,2.75,30.52,9.8,51.09Z"/>
    <path d="M240.27,999.66c-3.99,5.38-7.96,11.9-12.04,19.52-8.27,15.32-15.4,35.4-19.03,60.71-1.61,12.67-2.75,26.65-1.75,41.6.45,7.49.84,15.4,2.16,23.39,1.2,7.98,2.83,16.26,4.73,24.77,11.22-1.91,18.32-16.26,23.06-35.37,5.01-19.19,8.34-43.39,11.55-66.86,1.51-11.61,3.48-23.31,4.68-33.94,1.59-10.8,3.1-20.66,4.36-29.01,2.69-16.91,4.42-27.79,4.42-27.79,0,0-4.36,3.06-10.96,9.82-3.24,3.34-7.05,7.7-11.18,13.16Z"/>
    <path d="M259.99,843.21c-2.1.98-5.11,2.57-8.6,4.93-7.09,4.64-16.79,12.22-27.28,24.28-9.72,12.06-20.8,28.56-28.46,50.85-1.94,5.54-4.03,11.45-5.56,17.68-1.49,6.23-2.83,12.79-4.01,19.76-2.65,13.89-3.08,29.05-3.16,45.59,10.55,1.14,19.88-9.98,27.95-26.16,3.92-8.07,8.19-17.48,12.04-27.42,3.83-10.39,7.66-20.74,11.37-30.76,1.83-5.25,3.6-10.39,5.25-15.4,1.85-5.13,3.69-9.98,5.42-14.71,3.36-9.49,6.23-18.21,9.25-25.59,2.77-7.42,4.97-13.53,6.44-17.81,1.53-4.28,2.61-6.68,2.61-6.68,0,0-1.18.45-3.26,1.42Z"/>
    <path d="M277.63,729.82c7.99-12.06,12.92-20.09,12.92-20.09,0,0-4.46.45-11.82,2.98-7.33,2.48-18.05,6.84-29.25,15.4-5.66,4.24-11.75,9.45-17.91,15.89-5.86,6.39-11.81,14.1-17.68,23.14-5.76,9.01-10.81,19.48-15.81,31.37-4.5,12.06-8.57,25.5-11.43,40.5,4.68,1.95,9.61.98,14.59-2.12,5.11-3.01,10.49-8.03,15.77-14.3,10.35-12.59,21.68-30.03,32.19-46.93,5.5-8.43,10.37-16.99,15.32-24.73,4.99-7.7,9.43-14.91,13.12-21.1Z"/>
    <path d="M343.64,587.14s-4.13-.65-11.37-.24c-7.33.32-17.27,2.16-29.21,7.01-12.22,4.6-25.51,13.04-39.56,26.28-6.65,6.89-13.53,14.91-20.23,24.32-6.17,9.82-12.77,20.66-18.09,33.49,7.72,5.91,18.35,1.59,30.5-6.89,6.11-4.24,12.02-9.82,18.66-15.64,6.58-5.83,13.04-12.22,19.33-18.7,26.75-26.52,49.97-49.63,49.97-49.63Z"/>
    <path d="M365.7,513.15c14.2-7.99,27.34-16.71,37.59-22.61,5.01-3.1,9.13-5.71,12.02-7.46,2.93-1.75,4.6-2.69,4.6-2.69,0,0-3.64-1.59-10.25-2.97-6.46-1.18-15.85-2.04-27.56-.69-22.88,2.97-56.1,15.81-85.68,56.06,2.85,3.62,6.94,5.17,11.75,5.25,4.89.08,10.65-1.26,16.89-3.59,6.27-2.2,12.71-5.74,19.74-9.33,6.99-3.59,14.1-7.7,20.9-11.98Z"/>
    <path d="M440.34,417.28c6.91-1.47,14.04-3.38,20.94-5.5,6.95-2.12,14.04-3.83,20.37-5.87,6.36-2.08,12.22-3.91,17.4-5.3,10.17-2.93,16.72-5.17,16.72-5.17,0,0-11.67-8.92-33.16-12.3-20.94-2.61-52.86.57-86.81,28.72,3.71,7.82,13.29,9.78,25.18,8.84,6.05-.45,12.41-2,19.36-3.42Z"/>
    <path d="M555.7,338.4c6.35.45,13.04.49,19.58.41,6.48-.28,13.12-.12,19.15-.28,6.05-.12,11.61-.45,16.36-.65,9.61-.04,15.89-.41,15.89-.41,0,0-2.22-2.65-6.72-6.36-4.52-3.59-11.41-8.84-20.51-12.43-4.59-1.83-9.74-3.51-15.52-4.81-5.83-1.39-12.2-2.28-19.01-2.12-6.89.08-14.38.61-22.37,2.24-7.85,1.91-16.26,4.65-25.08,8.44,1.77,7.86,9.86,12.06,20.51,14.18,5.38,1.1,11.31,1.38,17.72,1.79Z"/>
    <path d="M1478.82,1608.81c-5.52-.41-11.22-.53-17.27-.77-6.12-.24-12.43-.45-18.97-.37-12.96.29-27.19.49-42.17,1.79-30.17,2.2-63.87,7.25-102.61,15.32.26,8.23,4.2,15.44,10.92,21.27,6.72,5.78,16.34,10.31,28.15,13.81,11.77,3.54,25.43,4.81,40.44,5.66,7.41.24,15.11-.12,22.96-.49,7.86-.41,15.91-1.06,23.79-2.4,7.95-1.18,15.91-2.57,23.84-4.12,7.76-1.75,15.44-3.75,22.88-5.74,15.05-3.79,28.52-9.21,40.41-13.45,11.76-4.56,21.29-9.25,28.12-12.26,6.78-3.14,10.59-5.18,10.59-5.18,0,0-6.68-2.73-19.01-5.58-12.3-2.93-29.92-5.71-52.07-7.5Z"/>
    <path d="M1650.72,1495.55c-5.91.16-13,.69-21.33,1.63-8.39.82-17.78,2.2-28.05,4.28-20.58,4.07-45,10.35-72.12,20.41-27.47,9.7-57.53,23.31-91.63,41.11,1.94,7.42,6.97,13.08,14.32,16.62,7.33,3.5,17.09,5.09,28.58,5.21,11.63.2,24.37-2.24,38.34-5.34,6.95-1.59,13.81-3.99,21-6.4,7.05-2.48,14.47-4.93,21.41-8.23,14.12-6.23,28.28-13.16,41.01-20.94,13.06-7.29,24.65-15.28,34.61-22.41,10.09-6.97,17.99-13.57,23.57-18.13,5.62-4.69,8.8-7.33,8.8-7.33,0,0-6.7-.9-18.52-.49Z"/>
    <path d="M1699.16,1365.13c-9.17,4.36-19.21,9.45-29.49,15.69-10.35,6.19-21.78,12.87-33.08,21.18-23.47,15.89-48.49,36.1-76.29,61.56,6.58,12.96,22.53,14.63,43.76,8.8,10.57-2.85,21.88-8.35,34.06-14.83,11.88-6.72,24.16-14.99,36.16-24.12,11.61-9.49,23.55-19.15,33.69-29.54,5.19-5.21,10.13-10.19,14.85-14.91,4.68-4.85,8.76-9.78,12.65-14.26,7.78-8.96,14.3-16.62,18.42-22.41,4.26-5.67,6.62-8.88,6.62-8.88,0,0-6.3.78-17.03,4.03-10.62,3.42-26.38,8.6-44.31,17.68Z"/>
    <path d="M1804.48,1179.79c-9.51,5.46-22.31,14.46-37.45,27.05-7.68,6.23-15.7,13.49-23.95,21.84-8.72,8.15-17.42,17.44-26.42,27.83-18.52,20.54-37.46,45.59-57.97,76.23,8.52,10.06,23.48,7.5,41.76-3.38,9.09-5.46,18.46-13.28,28.34-22.33,9.68-9.21,19.11-20.09,28.52-31.33,8.78-11.65,17.76-23.55,25.26-35.53,7.35-11.98,14.5-23.26,19.74-33.49,5.36-10.23,9.7-18.91,12.67-25.06,1.59-3.01,2.61-5.54,3.36-7.17.72-1.71,1.08-2.57,1.08-2.57,0,0-1.36.57-3.93,1.79-2.48,1.3-6.23,3.26-11,6.11Z"/>
    <path d="M1830.64,1001.37c-3.75,3.67-8.19,8.39-13.04,14.06-4.91,5.62-10.56,12.3-16.22,19.88-11.2,15.32-24.1,34.47-36.61,58.02-6.54,11.77-12.47,24.73-19.11,38.7-3.28,6.97-6.09,14.47-9.43,22.08-3.3,7.62-6.44,15.65-9.49,24,9.78,6.89,22.91.61,37.48-14.06,14.2-14.75,29.07-38.05,41.39-63.56,6.25-12.75,11.33-25.99,16.38-38.71,4.73-12.63,8.39-24.85,11.74-35.4,3.36-10.55,5.19-19.56,6.84-25.83,1.48-6.39,2.3-9.98,2.3-9.98,0,0-4.76,3.42-12.24,10.8Z"/>
    <path d="M1791.46,986.26c5.32-8.52,9.76-18.99,14.08-30.64,2.16-5.83,4.28-11.94,6.3-18.25,1.75-6.27,3.42-12.71,5.03-19.23,1.57-6.56,3.1-13.12,4.5-19.72,1.2-6.52,2.22-13.08,3.2-19.35,2-12.63,3.58-24.65,4.26-34.96.85-10.39,1.38-19.07,1.77-25.18.28-6.11.23-9.57.23-9.57,0,0-.92,1.06-2.53,3.18-1.61,2.12-3.83,5.34-6.66,9.53-5.64,8.55-13.12,21.35-20.41,38.01-15.7,33.66-31.55,81.61-40.98,148.84,10.27,3.62,20.94-5.58,31.22-22.65Z"/>
    <path d="M1770.89,827.89c3.99-4.93,7.36-12.22,10.33-21.27,6.15-18.09,9.21-42.82,10.2-68.12.18-12.51.39-25.34-.28-37.24-.76-11.85-1.69-23.06-2.57-32.68-2.43-19.03-4.69-31.82-4.69-31.82,0,0-2.65,4.77-6.13,13.86-3.52,9.13-7.47,22.24-11.59,39.4-1.98,8.47-3.71,17.93-5.11,28.15-1.73,10.35-3.07,21.55-3.79,33.49-.82,12.02-1.67,25.1-1.43,38.87-.16,13.9.45,28.72,1.47,44.62,4.97.33,9.5-2.24,13.59-7.25Z"/>
    <path d="M1734.04,635.38c.84-8.8,1.24-19.19.35-29.99-.8-10.79-2.16-22.33-4.01-33.82-2.12-11.32-4.65-22.73-7.21-33.33-2.73-10.55-5.83-20.25-8.42-28.64-2.55-8.43-5.05-15.28-6.91-19.97-1.89-4.77-2.95-7.5-2.95-7.5,0,0-1.48,4.97-2.93,13.89-1.34,8.88-3.07,22.08-3.42,38.3-.74,32.72,3.56,76.88,19.56,132.9,9.06-1.96,14.42-14.22,15.95-31.86Z"/>
    <path d="M1602.32,401.31c5.13,29.58,17.15,68.04,42.35,114.04,7.76-4.11,10.04-16.42,8.13-32.59-.96-8.07-2.57-17.48-5.34-26.81-2.77-9.49-6.19-19.44-9.88-29.21-7.94-19.19-17.19-38.13-25.2-51.46-3.89-6.8-7.25-12.43-9.66-16.34-2.55-3.79-3.95-5.91-3.95-5.91,0,0-.45,4.77-.16,13.08.16,8.51,1.04,20.7,3.71,35.2Z"/>
    <path d="M1541.59,388.43c6.14-5.7,5.66-16.99,1-30.96-2.34-6.97-5.52-14.87-9.74-22.49-4.16-7.7-9.02-15.6-14.16-23.47-5.13-7.78-10.85-14.83-16.22-21.67-5.34-6.81-10.63-13-15.36-17.89-9.39-10.06-15.97-16.54-15.97-16.54,0,0,1.61,17.68,11.69,42.09,9.74,25.38,27.54,56.51,58.75,90.94Z"/>
    <path d="M1346.33,228.56c3.26,4.93,7.05,10.19,11.45,15.44,4.44,5.18,9.43,10.63,15,16.42,5.6,5.66,11.9,11.2,18.92,16.75,6.89,5.86,14.59,11.49,23.26,16.91,4.28-6.56,1.7-16.3-4.99-27.58-3.38-5.46-7.68-11.61-12.75-17.36-5.16-5.66-10.84-11.45-16.83-17.03-11.83-11.12-24.93-20.29-34.81-27.38-10.08-6.44-17.05-10.43-17.05-10.43,0,0,1.1,3.75,3.89,9.86,2.79,6.27,7.42,14.34,13.92,24.4Z"/>
    <path d="M1313.47,1506.1c3.28-8.44,5.56-15.85,7.17-22.08,3.12-12.75,3.67-20.54,3.67-20.54,0,0-2.45,2.08-6.74,5.87-4.38,3.5-10.67,8.44-18.25,14.87-7.7,6.11-16.81,13.08-26.77,20.82-10.02,7.21-20.84,15.68-32.1,23.38-11.13,8.39-22.65,15.89-33.57,24.28-10.94,7.99-21.39,15.73-30.34,24-17.91,15.28-30.07,31.98-27.23,48.89,40.25-3.3,72.97-17.6,97.7-34.84,6.19-4.48,11.96-8.8,17.21-13.49,5.26-4.89,10.02-9.78,14.44-14.58,8.86-9.41,15.79-19.97,21.53-29.38,5.74-9.33,10-18.83,13.28-27.22Z"/>
    <path d="M1376.86,1546.72c9.74-11.53,17.76-22.7,23.9-34.3,3.13-5.7,5.89-11.2,8.33-16.58,2.4-5.5,4.36-10.96,6.09-16.13,7.05-20.58,9.14-38.7,9.82-51.09.65-12.51-.23-19.76-.23-19.76,0,0-7.66,9.94-19.62,25.5-6.19,7.34-13.02,16.95-21.08,26.16-3.97,4.77-8.05,9.78-12.26,14.95-4.34,4.89-8.72,9.98-13.12,15.24-4.32,5.42-8.86,10.43-13.34,15.57-4.5,5.17-8.84,10.59-13.12,15.81-8.7,9.82-16.6,20.54-23.39,29.99-6.76,9.58-12.06,18.99-14.97,27.91-2.92,8.88-3.5,17.03-.43,24.57,36.43-13.85,63.85-35.53,83.42-57.81Z"/>
    <path d="M1680.4,999.66c-4.11-5.46-7.93-9.82-11.2-13.16-6.58-6.76-10.94-9.82-10.94-9.82,0,0,1.75,10.88,4.42,27.79,1.24,8.35,2.77,18.21,4.34,29.01,1.2,10.63,3.2,22.33,4.7,33.94,3.24,23.47,6.52,47.67,11.59,66.86,4.71,19.11,11.82,33.45,23,35.37,1.89-8.52,3.54-16.79,4.76-24.77,1.31-7.99,1.71-15.89,2.12-23.39,1.06-14.95-.14-28.93-1.71-41.6-3.65-25.3-10.8-45.39-19.05-60.71-4.07-7.62-8.05-14.14-12.04-19.52Z"/>
    <path d="M1737.73,1006.3c-.06-16.54-.49-31.7-3.14-45.59-1.18-6.97-2.53-13.53-4.03-19.76-1.49-6.23-3.61-12.14-5.54-17.68-7.68-22.29-18.74-38.79-28.46-50.85-10.49-12.06-20.17-19.64-27.25-24.28-3.48-2.36-6.54-3.95-8.6-4.93-2.08-.98-3.26-1.42-3.26-1.42,0,0,1.04,2.4,2.59,6.68,1.47,4.28,3.69,10.39,6.46,17.81,2.97,7.37,5.86,16.09,9.23,25.59,1.73,4.73,3.54,9.57,5.42,14.71,1.67,5.01,3.42,10.15,5.25,15.4,3.71,10.02,7.54,20.37,11.37,30.76,3.85,9.94,8.17,19.36,12.02,27.42,8.09,16.18,17.42,27.3,27.95,26.16Z"/>
    <path d="M1706.8,767.14c-5.87-9.04-11.84-16.74-17.68-23.14-6.19-6.44-12.26-11.65-17.93-15.89-11.18-8.56-21.92-12.92-29.23-15.4-7.38-2.53-11.82-2.98-11.82-2.98,0,0,4.89,8.03,12.9,20.09,3.69,6.19,8.11,13.41,13.1,21.1,4.98,7.74,9.82,16.3,15.36,24.73,10.49,16.91,21.82,34.35,32.17,46.93,5.3,6.27,10.65,11.29,15.74,14.3,4.99,3.1,9.92,4.07,14.61,2.12-2.83-15-6.95-28.44-11.41-40.5-5.01-11.9-10.04-22.37-15.81-31.37Z"/>
    <path d="M1657.17,620.18c-14.07-13.24-27.36-21.67-39.54-26.28-11.96-4.85-21.9-6.69-29.23-7.01-7.23-.41-11.37.24-11.37.24,0,0,23.22,23.1,49.96,49.63,6.33,6.48,12.77,12.87,19.35,18.7,6.62,5.83,12.55,11.41,18.64,15.64,12.16,8.48,22.79,12.8,30.52,6.89-5.32-12.83-11.94-23.67-18.09-33.49-6.68-9.41-13.61-17.44-20.23-24.32Z"/>
    <path d="M1538.55,476.72c-11.71-1.35-21.1-.49-27.54.69-6.6,1.38-10.23,2.97-10.23,2.97,0,0,1.65.94,4.57,2.69,2.93,1.75,7.03,4.36,12.04,7.46,10.25,5.91,23.39,14.63,37.57,22.61,6.84,4.28,13.93,8.39,20.94,11.98,7.03,3.59,13.47,7.13,19.74,9.33,6.19,2.32,11.96,3.67,16.87,3.59,4.85-.08,8.9-1.63,11.8-5.25-29.6-40.26-62.85-53.09-85.75-56.06Z"/>
    <path d="M1438.06,383.14c-21.49,3.38-33.16,12.3-33.16,12.3,0,0,6.56,2.24,16.74,5.17,5.14,1.38,11.05,3.22,17.42,5.3,6.28,2.04,13.39,3.75,20.33,5.87,6.95,2.12,14.06,4.03,20.99,5.5,6.92,1.42,13.3,2.97,19.29,3.42,11.92.94,21.53-1.02,25.18-8.84-33.92-28.15-65.86-31.33-86.78-28.72Z"/>
    <path d="M1345.39,338.81c6.56.08,13.2.04,19.6-.41,6.39-.41,12.32-.69,17.7-1.79,10.69-2.12,18.74-6.32,20.51-14.18-8.82-3.79-17.25-6.52-25.1-8.44-7.96-1.63-15.46-2.16-22.35-2.24-6.8-.16-13.18.73-18.99,2.12-5.81,1.3-10.98,2.98-15.52,4.81-9.11,3.59-16.01,8.84-20.53,12.43-4.5,3.71-6.74,6.36-6.74,6.36,0,0,6.29.37,15.89.41,4.77.2,10.35.53,16.4.65,6.03.16,12.63,0,19.13.28Z"/>
    <path d="M1367.47,1692.71c-8.66-3.75-18.6-7.42-29.78-11.57-11.18-4.07-23.41-7.33-36.85-11.37-6.76-1.88-13.69-3.59-20.94-5.13-7.27-1.79-14.85-3.63-22.61-5.09-27.73-5.6-59.01-9.7-94.45-12.87,64.97-2.62,129.66-15.95,190.69-42.21,250.59-107.6,420.32-397.08,406.25-707.79-6.95-153.56-54.72-301.95-144.15-416.97-74.94-96.33-176.65-163.03-283.19-205.97-1.49-1.54-2.81-3.12-4.54-4.55-3.18-2.41-6.64-4.85-10.49-7.09-7.64-4.56-16.56-9-26.38-12.18-9.74-3.38-20.21-6.56-31.01-8.35-5.36-1.02-10.75-1.95-16.17-2.81-5.4-.69-10.82-1.06-16.13-1.47-5.24-.37-10.49-.69-15.57-1.02-5.05-.04-10,.12-14.69.16-9.47.29-17.97.45-25.18,1.47-14.38,1.63-23.41,3.01-23.41,3.01,0,0,8.84,2.04,22.65,4.77,6.93,1.14,15.06,3.3,23.96,5.34,4.48.94,9.12,2,13.93,2.97,4.81,1.22,9.7,2.49,14.69,3.79,5.01,1.14,10.11,2.32,15.24,3.46,5.09,1.47,10.2,2.81,15.34,4.07,5.18,1.18,10.29,2.36,15.3,3.54,5.03,1.3,10.04,2.53,14.91,3.46,9.82,1.88,19.09,3.83,27.71,4.85,5.09.48,9.83.59,14.34.51,6.18,2.62,12.33,5.28,18.46,7.96,132.38,58.14,252.54,166.11,323.74,309.93,72.99,147.53,94.36,327.21,60.24,492.59-17.37,84.23-47.41,161.28-87.1,229.35,15.45-31.97,22.26-62.74,24.3-89.19.81-13.61.33-26.2-.69-37.45-1.42-11.45-3.56-21.75-6.02-30.68-5.06-18.05-12.06-31.45-17.2-40.13-2.63-4.32-4.95-7.66-6.68-9.82-1.71-2.2-2.69-3.3-2.69-3.3,0,0-.04.77-.08,2.16,0,1.43,0,3.46-.18,5.95-.28,5.17-.65,12.55-.9,21.59-.23,9.09-1.28,19.35-1.65,30.97-.57,11.45-1.79,23.59-2.28,36.3-1.1,12.3-1.7,25.22-2.3,37.53-.77,12.1-.77,24.04-.39,34.59.65,20.98,4.77,37.78,15.79,43.27-25.41,43.29-54.69,82.97-87.35,118.3,19.53-26.14,31.64-53.09,38.76-77.39,3.59-13.89,6.17-26.69,7.19-38.79.96-12.23,1.06-23.27.36-33.21-1.85-20.29-5.58-35.49-9.51-46.12-3.87-10.59-7.03-16.18-7.03-16.18,0,0-.69,3.06-1.91,8.31-1.04,5.42-3.1,12.75-5.38,21.84-1.18,4.52-2.24,9.62-3.62,14.83-1.41,5.13-2.89,10.72-4.46,16.46-2.86,11.77-6.77,23.71-9.94,36.55-3.65,12.59-7.21,25.47-10.39,37.93-3.4,12.14-5.91,24.57-7.92,35.45-3.74,21.23-3.27,39.34,6.13,48.46-32.67,34.15-68.46,64.11-106.74,89.39,24.95-20.66,42.65-44.31,54.79-66.84,13.63-26.07,20.25-50.81,22.78-71.75,1.26-10.63,1.63-20.09,1.55-28.36-.18-8.35-1.04-15.64-1.86-21.59-1.75-11.81-3.85-18.33-3.85-18.33,0,0-1.34,2.81-3.69,7.78-2.38,5.05-5.56,12.47-9.9,20.94-4.24,8.6-9.07,18.94-14.73,29.66-5.44,11.2-11.75,22.65-17.84,34.71-2.95,6.11-6.35,11.77-9.45,17.84-2.99,5.95-6.05,11.98-9.08,17.93-6.14,11.49-11.31,23.51-15.75,34.02-4.41,10.63-7.4,20.74-8.29,29.74-.91,8.49.15,15.7,3.92,21.67-98.96,62.15-213.54,93.44-332.76,85.04v18.05c17.92,1.27,35.9,1.57,53.89,1.26-2.06,16.56,10.32,32.03,32.26,45.8,11.24,6.39,24.95,12.55,40.07,17.4,15.08,4.44,31.7,8.6,48.49,10.51,16.86,2.61,33.88,2.97,50.11,3.34,16.1-.24,31.29-1.22,44.35-2.69,12.98-1.71,23.92-3.34,31.53-4.69,7.62-1.67,11.92-2.65,11.92-2.65,0,0-6.34-4.48-18.25-10.64-6.09-3.22-13.53-6.89-22.21-10.59Z"/>
    <path d="M1043.73,1617.13c10.24-.85,61.04-19.37,61.05-71.52.01-30.36-29.7-55.18-60.85-35.27-16.33,8.15-30.65,19.52-40.31,35.14-15.71,25.42-22.65,52.7-23.1,77.98h-5.36c-1.09-8.44-1.72-17.81-1.36-28.58,6.08-80.74,30.97-75.97,30.97-101.09,0-39.64-19.48-71.48-41.86-97.55q-1.5-2.76-2.59-5.57s-.9,2.49-2.6,5.57c-22.38,26.06-41.85,57.91-41.85,97.55,0,25.11,24.88,20.35,30.97,101.09.36,10.77-.27,20.14-1.36,28.58h-5.36c-.44-25.29-7.39-52.56-23.1-77.98-9.66-15.62-23.98-26.99-40.31-35.14-31.15-19.92-60.86,4.91-60.85,35.27.01,52.15,50.82,70.67,61.05,71.52-16.72-9.93-19.34-30.24-3.87-36.86,8.7-3.72,32.51,3.03,42.49,43.19h-16.58v19.84h19.9c1.57,27.39-19.63,75.99-59.4,53.3,5.14,17.17,40.57,25.14,58.78,1.62,10.74-13.87,18.24-33.15,20.87-54.92h2.86c-2.71,12.52-5.51,22.97-5.53,33.42-.04,19.48,13.48,36.89,21.21,45.34l2.66,2.81,2.58-2.72c7.73-8.42,21.33-25.88,21.29-45.42-.02-10.46-2.82-20.9-5.53-33.42h2.86c2.63,21.77,10.13,41.05,20.87,54.92,18.21,23.52,53.64,15.56,58.78-1.62-39.77,22.69-60.97-25.91-59.4-53.3h19.9v-19.84h-16.58c9.98-40.16,33.79-46.91,42.49-43.19,15.47,6.62,12.86,26.93-3.86,36.86Z"/>
  </g>
</svg>